<svg xmlns="http://www.w3.org/2000/svg" width="1180" height="680" viewBox="0 0 1180 680" role="img" aria-label="Ontology Ablation Metrics (Cross-Type Hard Negatives)">
<style>
text{font-family:Arial,sans-serif;fill:#111827}
.axis{stroke:#374151;stroke-width:1}
.grid{stroke:#e5e7eb;stroke-width:1}
.label{font-size:14px}
.small{font-size:12px;fill:#4b5563}
.title{font-size:24px;font-weight:700}
.value{font-size:12px;font-weight:700}
</style>
<rect width="100%" height="100%" fill="#ffffff"/>
<text class="title" x="90" y="42">Ontology Ablation Metrics (Cross-Type Hard Negatives)</text>
<line class="grid" x1="90" y1="510.00" x2="1140" y2="510.00"/>
<text class="small" x="44" y="514.00">0.0</text>
<line class="grid" x1="90" y1="467.60" x2="1140" y2="467.60"/>
<text class="small" x="44" y="471.60">0.1</text>
<line class="grid" x1="90" y1="425.20" x2="1140" y2="425.20"/>
<text class="small" x="44" y="429.20">0.2</text>
<line class="grid" x1="90" y1="382.80" x2="1140" y2="382.80"/>
<text class="small" x="44" y="386.80">0.3</text>
<line class="grid" x1="90" y1="340.40" x2="1140" y2="340.40"/>
<text class="small" x="44" y="344.40">0.4</text>
<line class="grid" x1="90" y1="298.00" x2="1140" y2="298.00"/>
<text class="small" x="44" y="302.00">0.5</text>
<line class="grid" x1="90" y1="255.60" x2="1140" y2="255.60"/>
<text class="small" x="44" y="259.60">0.6</text>
<line class="grid" x1="90" y1="213.20" x2="1140" y2="213.20"/>
<text class="small" x="44" y="217.20">0.7</text>
<line class="grid" x1="90" y1="170.80" x2="1140" y2="170.80"/>
<text class="small" x="44" y="174.80">0.8</text>
<line class="grid" x1="90" y1="128.40" x2="1140" y2="128.40"/>
<text class="small" x="44" y="132.40">0.9</text>
<line class="grid" x1="90" y1="86.00" x2="1140" y2="86.00"/>
<text class="small" x="44" y="90.00">1.0</text>
<line class="axis" x1="90" y1="86" x2="90" y2="510"/>
<line class="axis" x1="90" y1="510" x2="1140" y2="510"/>
<text class="label" text-anchor="middle" x="221.25" y="552">accuracy</text>
<rect x="108.00" y="510.00" width="38.90" height="0.00" fill="#2563eb" rx="2"/>
<text class="value" text-anchor="middle" x="127.45" y="504.00">0.000</text>
<rect x="154.90" y="86.00" width="38.90" height="424.00" fill="#059669" rx="2"/>
<text class="value" text-anchor="middle" x="174.35" y="100.00">1.000</text>
<rect x="201.80" y="510.00" width="38.90" height="0.00" fill="#dc2626" rx="2"/>
<text class="value" text-anchor="middle" x="221.25" y="504.00">0.000</text>
<rect x="248.70" y="86.00" width="38.90" height="424.00" fill="#7c3aed" rx="2"/>
<text class="value" text-anchor="middle" x="268.15" y="100.00">1.000</text>
<rect x="295.60" y="86.00" width="38.90" height="424.00" fill="#ea580c" rx="2"/>
<text class="value" text-anchor="middle" x="315.05" y="100.00">1.000</text>
<text class="label" text-anchor="middle" x="483.75" y="552">precision</text>
<rect x="370.50" y="510.00" width="38.90" height="0.00" fill="#2563eb" rx="2"/>
<text class="value" text-anchor="middle" x="389.95" y="504.00">0.000</text>
<rect x="417.40" y="510.00" width="38.90" height="0.00" fill="#059669" rx="2"/>
<text class="value" text-anchor="middle" x="436.85" y="504.00">0.000</text>
<rect x="464.30" y="510.00" width="38.90" height="0.00" fill="#dc2626" rx="2"/>
<text class="value" text-anchor="middle" x="483.75" y="504.00">0.000</text>
<rect x="511.20" y="510.00" width="38.90" height="0.00" fill="#7c3aed" rx="2"/>
<text class="value" text-anchor="middle" x="530.65" y="504.00">0.000</text>
<rect x="558.10" y="510.00" width="38.90" height="0.00" fill="#ea580c" rx="2"/>
<text class="value" text-anchor="middle" x="577.55" y="504.00">0.000</text>
<text class="label" text-anchor="middle" x="746.25" y="552">recall</text>
<rect x="633.00" y="510.00" width="38.90" height="0.00" fill="#2563eb" rx="2"/>
<text class="value" text-anchor="middle" x="652.45" y="504.00">0.000</text>
<rect x="679.90" y="510.00" width="38.90" height="0.00" fill="#059669" rx="2"/>
<text class="value" text-anchor="middle" x="699.35" y="504.00">0.000</text>
<rect x="726.80" y="510.00" width="38.90" height="0.00" fill="#dc2626" rx="2"/>
<text class="value" text-anchor="middle" x="746.25" y="504.00">0.000</text>
<rect x="773.70" y="510.00" width="38.90" height="0.00" fill="#7c3aed" rx="2"/>
<text class="value" text-anchor="middle" x="793.15" y="504.00">0.000</text>
<rect x="820.60" y="510.00" width="38.90" height="0.00" fill="#ea580c" rx="2"/>
<text class="value" text-anchor="middle" x="840.05" y="504.00">0.000</text>
<text class="label" text-anchor="middle" x="1008.75" y="552">f1</text>
<rect x="895.50" y="510.00" width="38.90" height="0.00" fill="#2563eb" rx="2"/>
<text class="value" text-anchor="middle" x="914.95" y="504.00">0.000</text>
<rect x="942.40" y="510.00" width="38.90" height="0.00" fill="#059669" rx="2"/>
<text class="value" text-anchor="middle" x="961.85" y="504.00">0.000</text>
<rect x="989.30" y="510.00" width="38.90" height="0.00" fill="#dc2626" rx="2"/>
<text class="value" text-anchor="middle" x="1008.75" y="504.00">0.000</text>
<rect x="1036.20" y="510.00" width="38.90" height="0.00" fill="#7c3aed" rx="2"/>
<text class="value" text-anchor="middle" x="1055.65" y="504.00">0.000</text>
<rect x="1083.10" y="510.00" width="38.90" height="0.00" fill="#ea580c" rx="2"/>
<text class="value" text-anchor="middle" x="1102.55" y="504.00">0.000</text>
<rect x="90" y="576" width="14" height="14" fill="#2563eb" rx="2"/>
<text class="small" x="112" y="588">Lexical only</text>
<rect x="610" y="576" width="14" height="14" fill="#059669" rx="2"/>
<text class="small" x="632" y="588">Lexical + ontology hard gate</text>
<rect x="90" y="602" width="14" height="14" fill="#dc2626" rx="2"/>
<text class="small" x="112" y="614">BGE only</text>
<rect x="610" y="602" width="14" height="14" fill="#7c3aed" rx="2"/>
<text class="small" x="632" y="614">BGE + ontology hard gate</text>
<rect x="90" y="628" width="14" height="14" fill="#ea580c" rx="2"/>
<text class="small" x="112" y="640">BGE + ontology soft score</text>
<text class="small" x="90" y="658">Candidate-only artifact; no canonical graph/type writes; no raw access grants; not stakeholder-grade unless explicitly marked.</text>
</svg>
