<svg xmlns="http://www.w3.org/2000/svg" width="1180" height="680" viewBox="0 0 1180 680" role="img" aria-label="Public Enterprise KG Benchmark (50000 pairs)">
<style>
text{font-family:Arial,sans-serif;fill:#111827}
.axis{stroke:#374151;stroke-width:1}
.grid{stroke:#e5e7eb;stroke-width:1}
.label{font-size:14px}
.small{font-size:12px;fill:#4b5563}
.title{font-size:24px;font-weight:700}
.value{font-size:12px;font-weight:700}
</style>
<rect width="100%" height="100%" fill="#ffffff"/>
<text class="title" x="90" y="42">Public Enterprise KG Benchmark (50000 pairs)</text>
<line class="grid" x1="90" y1="510.00" x2="1140" y2="510.00"/>
<text class="small" x="44" y="514.00">0.0</text>
<line class="grid" x1="90" y1="467.60" x2="1140" y2="467.60"/>
<text class="small" x="44" y="471.60">0.1</text>
<line class="grid" x1="90" y1="425.20" x2="1140" y2="425.20"/>
<text class="small" x="44" y="429.20">0.2</text>
<line class="grid" x1="90" y1="382.80" x2="1140" y2="382.80"/>
<text class="small" x="44" y="386.80">0.3</text>
<line class="grid" x1="90" y1="340.40" x2="1140" y2="340.40"/>
<text class="small" x="44" y="344.40">0.4</text>
<line class="grid" x1="90" y1="298.00" x2="1140" y2="298.00"/>
<text class="small" x="44" y="302.00">0.5</text>
<line class="grid" x1="90" y1="255.60" x2="1140" y2="255.60"/>
<text class="small" x="44" y="259.60">0.6</text>
<line class="grid" x1="90" y1="213.20" x2="1140" y2="213.20"/>
<text class="small" x="44" y="217.20">0.7</text>
<line class="grid" x1="90" y1="170.80" x2="1140" y2="170.80"/>
<text class="small" x="44" y="174.80">0.8</text>
<line class="grid" x1="90" y1="128.40" x2="1140" y2="128.40"/>
<text class="small" x="44" y="132.40">0.9</text>
<line class="grid" x1="90" y1="86.00" x2="1140" y2="86.00"/>
<text class="small" x="44" y="90.00">1.0</text>
<line class="axis" x1="90" y1="86" x2="90" y2="510"/>
<line class="axis" x1="90" y1="510" x2="1140" y2="510"/>
<text class="label" text-anchor="middle" x="221.25" y="552">accuracy</text>
<rect x="108.00" y="288.46" width="109.25" height="221.54" fill="#2563eb" rx="2"/>
<text class="value" text-anchor="middle" x="162.62" y="282.46">0.522</text>
<rect x="225.25" y="170.86" width="109.25" height="339.14" fill="#059669" rx="2"/>
<text class="value" text-anchor="middle" x="279.88" y="164.86">0.800</text>
<text class="label" text-anchor="middle" x="483.75" y="552">precision</text>
<rect x="370.50" y="119.10" width="109.25" height="390.90" fill="#2563eb" rx="2"/>
<text class="value" text-anchor="middle" x="425.12" y="113.10">0.922</text>
<rect x="487.75" y="108.92" width="109.25" height="401.08" fill="#059669" rx="2"/>
<text class="value" text-anchor="middle" x="542.38" y="102.92">0.946</text>
<text class="label" text-anchor="middle" x="746.25" y="552">recall</text>
<rect x="633.00" y="492.06" width="109.25" height="17.94" fill="#2563eb" rx="2"/>
<text class="value" text-anchor="middle" x="687.62" y="486.06">0.042</text>
<rect x="750.25" y="241.49" width="109.25" height="268.51" fill="#059669" rx="2"/>
<text class="value" text-anchor="middle" x="804.88" y="235.49">0.633</text>
<text class="label" text-anchor="middle" x="1008.75" y="552">f1</text>
<rect x="895.50" y="475.69" width="109.25" height="34.31" fill="#2563eb" rx="2"/>
<text class="value" text-anchor="middle" x="950.12" y="469.69">0.081</text>
<rect x="1012.75" y="188.33" width="109.25" height="321.67" fill="#059669" rx="2"/>
<text class="value" text-anchor="middle" x="1067.38" y="182.33">0.759</text>
<rect x="90" y="576" width="14" height="14" fill="#2563eb" rx="2"/>
<text class="small" x="112" y="588">Lexical baseline</text>
<rect x="610" y="576" width="14" height="14" fill="#059669" rx="2"/>
<text class="small" x="632" y="588">BGE large GPU</text>
<text class="small" x="90" y="658">Candidate-only artifact; no canonical graph/type writes; no raw access grants.</text>
</svg>
